<?xml version="1.0" encoding="UTF-8"?>
<svg id="Layer_2" data-name="Layer 2" xmlns="http://www.w3.org/2000/svg" viewBox="0 0 138.2 142.75">
  <defs>
    <style>
      .cls-1 {
        fill: #6aaae4;
      }

      .cls-1, .cls-2, .cls-3, .cls-4 {
        stroke-width: 0px;
      }

      .cls-2 {
        fill: #0071ce;
      }

      .cls-3 {
        fill: #0033a1;
      }

      .cls-4 {
        fill: #002f87;
      }
    </style>
  </defs>
  <g id="Layer_1-2" data-name="Layer 1">
    <g>
      <path id="CAD_Ellipse" data-name="CAD Ellipse" class="cls-1" d="M41.21,85.03c-.91,10.82,2.48,22.22,9.1,31.49,6.59,9.26,16.21,16.73,27.26,20.38,2.71,1.05,5.59,1.55,8.4,2.24,2.88.31,5.74.86,8.64.78,5.77.18,11.56-.64,17-2.36,10.97-3.18,20.57-10.22,26.59-19.21-9.16,5.81-18.62,9.76-28.45,11.14-4.89.64-9.79.92-14.62.38-4.83-.38-9.59-1.38-14.11-3-9.17-3-17.33-8.56-24.3-15.55-6.84-7.15-12.01-16.06-15.51-26.3Z"/>
      <g>
        <path id="CAD_Ellipse-2" data-name="CAD Ellipse" class="cls-3" d="M57.79,21.51c-10.83-.91-22.25,2.47-31.54,9.09-9.27,6.58-16.75,16.19-20.41,27.22-1.05,2.71-1.55,5.58-2.24,8.39-.31,2.88-.86,5.73-.78,8.63-.18,5.76.64,11.54,2.36,16.97,3.19,10.95,10.23,20.54,19.24,26.56-5.82-9.14-9.77-18.6-11.16-28.41-.64-4.88-.92-9.77-.38-14.6.38-4.82,1.38-9.57,3.01-14.09,3.01-9.16,8.57-17.31,15.57-24.26,7.16-6.83,16.08-12,26.33-15.49Z"/>
        <path id="CAD_Ellipse-3" data-name="CAD Ellipse" class="cls-4" d="M93.03,16.63c-7.02-8.29-17.48-13.96-28.73-15.85-11.22-1.89-23.31-.38-33.71,4.84-2.66,1.17-5.05,2.85-7.53,4.35-2.26,1.81-4.66,3.45-6.66,5.55-4.21,3.95-7.72,8.61-10.35,13.67C.56,39.18-1.25,50.94.86,61.55c2.36-10.58,6.26-20.05,12.23-27.97,3-3.91,6.27-7.56,10.07-10.59,3.68-3.14,7.75-5.8,12.1-7.84,8.61-4.35,18.31-6.19,28.19-6.16,9.9.23,19.86,2.87,29.58,7.64Z"/>
        <path id="CAD_Ellipse-4" data-name="CAD Ellipse" class="cls-2" d="M36.33,49.84c-8.3,7.01-13.98,17.46-15.87,28.69-1.9,11.2-.38,23.28,4.84,33.66,1.17,2.66,2.85,5.04,4.35,7.52,1.82,2.26,3.45,4.66,5.56,6.65,3.95,4.2,8.62,7.71,13.69,10.33,10.01,5.49,21.78,7.3,32.41,5.19-10.59-2.36-20.08-6.25-28.01-12.21-3.91-3-7.57-6.26-10.6-10.05-3.14-3.68-5.8-7.74-7.85-12.09-4.36-8.6-6.2-18.29-6.17-28.15.23-9.89,2.88-19.84,7.65-29.55Z"/>
      </g>
    </g>
  </g>
</svg>